:SAMPLES-PER-SECOND 30
:FULLY-SPECIFIED
:DEGREES
446
root  -42.4398 38.5043 -27.6202 -93.2458 -85.1657 136.034
RightUpLeg  -72.8352 -16.9504 19.7081
RightLeg  31.1374 -0.487186 -0.564185
RightFoot  -0.374407 1.0638 -11.0487
RightToes  0.00048216 0.542163 -0.142577
Spine  71.8281 -5.8751 5.51229
Spine1  7.17572 -0.347143 -7.3397
HEad  -33.0219 -3.94661 1.06285
LeftShoulder1  4.1646 -20.8127 -9.73649
LeftArm  -100.055 -65.37 37.5585
LeftForeArm  0.00165451 -17.7058 -1.31888
LeftHand  -0.25398 0.0180481 5.50724
RightShoulder  2.37501 14.0256 5.81934
RightArm  -80.9288 48.2143 -23.247
RightForeArm  -16.9379 15.5038 1.8375
RightHand  1.23263 10.1241 8.63458
LeftUpLeg  -69.5201 14.3774 -21.1915
LeftLeg  26.2871 2.20661 1.52428
LeftFoot  2.53296 -0.641656 5.14605
LeftToes  1.06248e-005 4.65855e-005 -8.185e-006
447
root  -42.7156 38.4471 -27.7234 -92.9111 -84.8636 136.39
RightUpLeg  -73.4964 -16.8416 19.585
RightLeg  32.0334 -0.345722 -0.48404
RightFoot  -1.20663 0.825199 -9.37618
RightToes  0.00048216 0.542163 -0.142577
Spine  71.9516 -5.73552 5.08575
Spine1  8.20377 -0.453207 -7.44409
HEad  -33.2428 -3.25 0.886825
LeftShoulder1  3.85694 -20.3475 -8.67786
LeftArm  -103.419 -64.3016 38.115
LeftForeArm  4.26255 -19.6498 -2.47183
LeftHand  -0.25398 0.0180481 5.50724
RightShoulder  2.12337 13.7462 4.42157
RightArm  -84.1757 47.2487 -22.7313
RightForeArm  -14.3209 17.7124 2.72319
RightHand  0.78848 9.22321 5.7165
LeftUpLeg  -69.9137 13.9514 -20.8636
LeftLeg  26.9041 2.81925 1.89412
LeftFoot  1.79638 -0.558503 4.7538
LeftToes  1.06248e-005 4.65855e-005 -8.185e-006
448
root  -42.9558 38.403 -27.8036 -92.4978 -84.6201 136.484
RightUpLeg  -74.0589 -16.5325 19.1671
RightLeg  33.0397 -0.567535 -0.652048
RightFoot  -1.58803 0.756467 -8.96902
RightToes  0.00048216 0.542163 -0.142577
Spine  72.1941 -5.59652 4.64625
Spine1  8.78936 -0.612008 -7.35405
HEad  -33.2234 -2.56307 0.481485
LeftShoulder1  3.57283 -19.9172 -7.66064
LeftArm  -104.874 -63.7161 37.5657
LeftForeArm  6.69745 -20.7141 -3.12045
LeftHand  -0.25398 0.0180481 5.50724
RightShoulder  1.8904 13.2903 3.23585
RightArm  -85.2982 47.1749 -22.4113
RightForeArm  -13.8793 18.8787 3.42974
RightHand  0.232835 8.37281 1.48492
LeftUpLeg  -70.1796 13.6612 -20.6167
LeftLeg  27.4353 3.23816 2.16512
LeftFoot  1.20765 -0.490201 4.38928
LeftToes  1.06248e-005 4.65855e-005 -8.185e-006
449
root  -43.1681 38.362 -27.8737 -91.6117 -84.6127 136.15
RightUpLeg  -74.6048 -16.1507 19.0052
RightLeg  33.8077 -0.874976 -0.887396
RightFoot  -1.82091 0.805601 -9.78959
RightToes  0.00048216 0.542163 -0.142577
Spine  72.2291 -5.52236 4.33232
Spine1  9.1237 -0.827811 -7.2488
HEad  -33.0701 -1.83748 0.300722
LeftShoulder1  3.29712 -19.5213 -6.62018
LeftArm  -105.777 -63.4636 36.4742
LeftForeArm  7.95239 -20.9959 -3.20528
LeftHand  -0.25398 0.0180481 5.50724
RightShoulder  1.71605 13.1844 2.13578
RightArm  -84.1666 47.4051 -22.1545
RightForeArm  -15.3552 18.9216 3.59701
RightHand  -0.305632 8.27967 -3.05874
LeftUpLeg  -70.6569 13.5059 -20.4201
LeftLeg  27.9943 3.28847 2.23695
LeftFoot  0.817994 -0.427219 3.96417
LeftToes  1.06248e-005 4.65855e-005 -8.185e-006
450
root  -43.3564 38.3339 -27.9353 -89.8428 -84.7268 134.971
RightUpLeg  -74.9931 -15.9423 19.1087
RightLeg  34.0786 -1.04686 -1.02021
RightFoot  -2.15005 0.81537 -10.2832
RightToes  0.00048216 0.542163 -0.142577
Spine  72.01 -5.48785 4.08043
Spine1  9.49281 -1.04469 -7.13694
HEad  -32.9509 -1.1166 0.419847
LeftShoulder1  3.11857 -19.3292 -5.88166
LeftArm  -106.945 -63.2398 35.315
LeftForeArm  9.54255 -21.2551 -3.25575
LeftHand  -0.25398 0.0180481 5.50724
RightShoulder  1.6078 13.4409 1.22989
RightArm  -82.8926 47.574 -21.6077
RightForeArm  -16.7509 18.8848 3.69934
RightHand  -0.823318 8.75758 -7.22073
LeftUpLeg  -71.1375 13.3918 -20.3663
LeftLeg  28.3161 3.14623 2.1799
LeftFoot  0.585234 -0.40973 3.88798
LeftToes  1.06248e-005 4.65855e-005 -8.185e-006
451
root  -43.5174 38.3292 -27.9784 -88.6547 -84.7613 134.181
RightUpLeg  -75.1177 -15.8594 19.0971
RightLeg  34.1473 -1.16497 -1.10862
RightFoot  -2.47312 0.756119 -9.93031
RightToes  0.00048216 0.542163 -0.142577
Spine  71.8222 -5.40826 3.81676
Spine1  9.84346 -1.1659 -7.01868
HEad  -32.9475 -0.649241 0.539178
LeftShoulder1  3.09997 -19.4705 -5.69425
LeftArm  -107.631 -63.0201 34.416
LeftForeArm  11.4001 -21.7942 -3.52742
LeftHand  -0.25398 0.0180481 5.50724
RightShoulder  1.54217 13.5043 0.750758
RightArm  -82.826 47.9831 -20.7957
RightForeArm  -17.2314 19.4276 4.04291
RightHand  -1.35484 9.41682 -11.0631
LeftUpLeg  -71.3142 13.33 -20.3663
LeftLeg  28.3926 3.09001 2.15306
LeftFoot  0.368341 -0.406841 3.94406
LeftToes  1.06248e-005 4.65855e-005 -8.185e-006
452
root  -43.6475 38.3347 -27.9948 -89.2548 -84.7288 134.895
RightUpLeg  -75.145 -15.7795 18.9442
RightLeg  34.4659 -1.27752 -1.20275
RightFoot  -2.60033 0.709663 -9.48487
RightToes  0.00048216 0.542163 -0.142577
Spine  71.7328 -5.29853 3.64486
Spine1  10.1026 -1.18542 -6.95426
HEad  -33.0939 -0.560591 0.471062
LeftShoulder1  3.15793 -19.7619 -5.78203
LeftArm  -107.335 -62.9686 33.9715
LeftForeArm  12.3967 -22.1922 -3.74613
LeftHand  -0.25398 0.0180481 5.50724
RightShoulder  1.5004 13.3004 0.594575
RightArm  -83.0182 48.5908 -20.1164
RightForeArm  -17.9226 20.1765 4.48745
RightHand  -1.89853 10.1405 -14.5965
LeftUpLeg  -71.2614 13.3846 -20.2706
LeftLeg  28.5291 3.12809 2.18569
LeftFoot  0.0676473 -0.369167 3.68967
LeftToes  1.06248e-005 4.65855e-005 -8.185e-006
453
root  -43.7445 38.3336 -27.99 -90.4899 -84.7098 136.06
RightUpLeg  -75.2245 -15.7668 18.8582
RightLeg  35.0318 -1.2842 -1.22967
RightFoot  -2.54578 0.706219 -9.37619
RightToes  0.00048216 0.542163 -0.142577
Spine  71.5573 -5.22403 3.6398
Spine1  10.4675 -1.17755 -6.89043
HEad  -33.3234 -0.712579 0.371088
LeftShoulder1  3.1599 -19.8814 -5.71247
LeftArm  -107.067 -63.145 33.9408
LeftForeArm  12.4331 -22.1317 -3.70702
LeftHand  -0.25398 0.0180481 5.50724
RightShoulder  1.48268 13.3264 0.459639
RightArm  -82.6485 48.8444 -19.8261
RightForeArm  -19.481 20.6735 4.81992
RightHand  -2.37623 10.8365 -17.36
LeftUpLeg  -71.1429 13.4827 -20.1114
LeftLeg  28.7973 3.17731 2.235
LeftFoot  -0.246884 -0.326462 3.37676
LeftToes  1.06248e-005 4.65855e-005 -8.185e-006
454
root  -43.8053 38.3259 -27.9784 -90.9909 -84.6536 136.375
RightUpLeg  -75.2218 -15.8343 18.6882
RightLeg  35.5358 -1.26073 -1.23219
RightFoot  -2.51228 0.698907 -9.24354
RightToes  0.00048216 0.542163 -0.142577
Spine  71.2882 -5.16444 3.68062
Spine1  10.9946 -1.17791 -6.70045
HEad  -33.4949 -0.92213 0.437468
LeftShoulder1  3.11562 -19.7646 -5.57655
LeftArm  -107.516 -63.5182 34.0625
LeftForeArm  12.2626 -21.8432 -3.52212
LeftHand  -0.25398 0.0180481 5.50724
RightShoulder  1.51366 13.7453 0.417826
RightArm  -82.5703 48.6578 -19.6908
RightForeArm  -20.5144 21.2328 5.12667
RightHand  -2.80114 11.5335 -19.5119
LeftUpLeg  -70.9126 13.4927 -19.9815
LeftLeg  29.0114 3.2986 2.32394
LeftFoot  -0.49215 -0.316649 3.36563
LeftToes  1.06248e-005 4.65855e-005 -8.185e-006
455
root  -43.8269 38.3132 -27.9677 -91.3156 -84.5022 136.384
RightUpLeg  -74.9682 -15.7404 18.081
RightLeg  35.9021 -1.50025 -1.43319
RightFoot  -2.62466 0.657204 -8.82897
RightToes  0.00048216 0.542163 -0.142577
Spine  71.0892 -5.06183 3.69318
Spine1  11.3729 -1.13132 -6.42412
HEad  -33.6516 -1.18275 0.615305
LeftShoulder1  3.16023 -19.6847 -5.84421
LeftArm  -107.91 -64.0597 33.9697
LeftForeArm  12.6028 -21.8128 -3.48223
LeftHand  -0.25398 0.0180481 5.50724
RightShoulder  1.59609 14.1088 0.743683
RightArm  -83.1892 48.5687 -19.2517
RightForeArm  -19.8737 22.3805 5.56718
RightHand  -3.38641 12.5237 -22.1378
LeftUpLeg  -70.5563 13.4415 -19.854
LeftLeg  29.1895 3.52673 2.47594
LeftFoot  -0.728968 -0.312742 3.41363
LeftToes  1.06248e-005 4.65855e-005 -8.185e-006
456
root  -43.8087 38.29 -27.9529 -92.5034 -84.3165 137.124
RightUpLeg  -74.5204 -15.3321 17.0578
RightLeg  36.2834 -2.07817 -1.90638
RightFoot  -2.79422 0.605325 -8.33105
RightToes  0.00048216 0.542163 -0.142577
Spine  70.9733 -4.96629 3.80302
Spine1  11.4316 -0.984492 -6.27321
HEad  -34.0273 -1.58716 0.749659
LeftShoulder1  3.34572 -19.8698 -6.60957
LeftArm  -107.281 -64.6725 33.4547
LeftForeArm  13.622 -22.3993 -3.80025
LeftHand  -0.25398 0.0180481 5.50724
RightShoulder  1.67269 14.0141 1.2972
RightArm  -83.3473 48.9004 -18.3488
RightForeArm  -18.9244 23.9593 6.02845
RightHand  -4.18546 13.7507 -25.4446
LeftUpLeg  -70.2125 13.4631 -19.7001
LeftLeg  29.5224 3.75576 2.64459
LeftFoot  -1.00485 -0.293621 3.31305
LeftToes  1.06248e-005 4.65855e-005 -8.185e-006
